<svg xmlns="http://www.w3.org/2000/svg" version="1.1" xmlns:xlink="http://www.w3.org/1999/xlink" width="2000" height="1500" viewBox="0 0 2000 1500"><rect width="2000" height="1500" x="0" y="0" id="background" stroke="transparent" fill="#ffffff"></rect><svg xml:space="preserve" width="1500" height="1125" data-version="2" data-id="lg_4gyRd8liah1QEiPpFr" viewBox="0 0 571 130" x="250" y="187.5"><rect width="100%" height="100%" fill="transparent"></rect><rect width="589.564" height="133.94" x="-294.782" y="-66.97" fill="#fff" rx="0" ry="0" transform="translate(285.5 65)scale(.9499)"></rect><path fill="#001f3f" d="M129.079 38.44q0-1.62 1.54-1.62h35.72q1.54 0 1.54 1.62 0 1.89-.09 3.8-.1 1.91-.18 3.83-.03 1.55-.05 3.07-.02 1.52-.1 3.07-.04 1.58-1.58 1.58h-8.8q-.5 0-.5.5v6.02q0 6.98.16 13.96.15 6.98.15 13.97 0 1.58-1.58 1.58h-14.58q-1.51 0-1.51-1.58 0-6.37.12-12.73.12-6.37.12-12.73v-8.49q0-.5-.47-.5h-7.9q-1.55 0-1.59-1.58-.07-1.55-.07-3.07 0-1.52-.08-3.07-.04-1.92-.16-3.83-.11-1.91-.11-3.8m58.36 52.61q-4.2 0-7.11-1.75-2.92-1.76-4.71-4.67t-2.59-6.46q-.79-3.55-.79-7.18 0-4.2.87-8.06.87-3.86 2.84-6.88 1.96-3.03 5.24-4.79 3.28-1.75 8.06-1.75 2.28 0 4.29.71 2 .71 4.01 1.72l.19.07h.19q.66-.38.93-.9t1.2-.52h13.92q1.54 0 1.54 1.54 0 2.93-.05 5.86-.06 2.93-.06 5.87 0 4.09.08 8.21.07 4.13.23 8.26.07 1.97.23 3.93.15 1.97.15 3.94 0 1.62-1.54 1.62h-14.2q-1.15 0-1.15-1.35 0-.27.02-.91t-.41-.64l-.15.04q-2.59 1.85-5.27 2.97-2.68 1.12-5.96 1.12m6.41-14.54q1.46 0 2.87-.6 1.41-.6 2.26-1.79V64.05q-1.05-.89-2.34-1.43-1.29-.54-2.68-.54-1.77 0-2.87 1.33t-1.6 3.15q-.51 1.81-.51 3.28 0 1.42.51 2.97.5 1.54 1.58 2.62t2.78 1.08m29.2-44.32q0-1.66 1.58-1.66h15q1.58 0 1.58 1.66 0 6.98-.17 13.98t-.17 14.02q0 6.98.13 14 .14 7.03.14 14.05 0 1.58-1.55 1.58h-14.92q-1.55 0-1.55-1.58 0-7.02.16-14.05.15-7.02.15-14 0-7.02-.19-14.02t-.19-13.98m45.78 58.86q-10.1 0-15.81-4.82-5.71-4.82-5.71-15.31 0-9.69 5.13-15.57 5.13-5.88 15.12-5.88 8.41 0 12.75 4.51t5.23 12.62v.23q0 .61-.24.9-.23.29-.77.6-1.08.58-2.39.93-1.31.34-2.51.77l-9.1 3.16q-1.19.43-2.43.79-1.23.37-2.47.83l-.27.43q.04.07.04.15 0 .08.04.15.77 1.82 2.47 2.9 1.7 1.08 3.62 1.08 1.93 0 3.63-.66 1.7-.65 2.95-1.29 1.25-.64 1.79-.64.51 0 .8.37.28.37.48.75.19.39.69 1.53.5 1.13 1.08 2.5.58 1.37 1 2.45.43 1.08.43 1.35 0 .62-.62 1.08-2.89 2.24-7.12 3.17-4.22.92-7.81.92m-4.36-23.84q1.59-.65 3.19-1.35 1.6-.69 3.18-1.35.04-1.58-.89-2.16-.92-.58-2.31-.58-1.43 0-2.09.91-.65.91-.82 2.18-.18 1.27-.26 2.35m28.43-16.62h13.47q1.04 0 1.6 1.08t.96 2.16q.41 1.08.91 1.08.08 0 .35-.27 2.16-2.39 4.3-3.78 2.14-1.39 5.53-1.39 5.17 0 8.64 3.01 3.47 3.01 3.51 8.33.04 4.63.1 9.26.06 4.63.21 9.25.08 2.2.23 4.44.16 2.24.16 4.44 0 1.62-1.55 1.62h-14.65q-1.55 0-1.59-1.58-.15-3.44-.11-6.93.04-3.49.04-6.96 0-1.93.05-3.82.06-1.89-.05-3.78-.04-1-.31-2.35t-1.66-1.35q-1.74 0-2.62 1.69-.89 1.7-1.22 4.11-.33 2.41-.35 4.71-.01 2.29-.05 3.45-.04.66-.02 1.31.02.66.02 1.31 0 2.13.05 4.3.06 2.18-.13 4.31-.12 1.58-1.58 1.58h-14.81q-1.55 0-1.55-1.62 0-2.05.18-4.09.17-2.05.21-4.09.15-4.36.21-8.7.06-4.34.06-8.66 0-2.43-.06-4.84-.06-2.41-.06-4.84 0-.93.2-1.66.19-.73 1.38-.73m49.49-15.66q0-1.62 1.59-1.62h14.5q1.58 0 1.58 1.58l-.23 14.58q0 .5.46.5h5.44q1.54 0 1.54 1.54v5.21q0 2.62-.07 5.25-.08 1.58-1.55 1.58h-5.24q-.16 0-.39.04t-.23.27q0 6.09.14 12.19.13 6.09.13 12.19 0 1.58-1.58 1.58h-14.5q-1.55 0-1.55-1.62 0-6.02.16-12.02.15-6 .15-12.01 0-.43-.38-.54-.39-.12-.74-.12-1.08 0-2.16.02t-1.15-1.56q-.04-.93-.02-1.87.02-.95.02-1.84-.04-1.69-.06-3.39-.02-1.7-.02-3.36 0-1.58 1.77-1.58.47 0 1.57.06 1.09.06 1.09-.68 0-3.58-.13-7.19-.14-3.61-.14-7.19m68.71 1.62q.73 0 2.52.09 1.8.1 3.82.39 2.03.29 3.47.89 1.45.59 1.45 1.6 0 .5-.31 2.12t-.75 3.62q-.45 2.01-.83 3.73-.39 1.71-.58 2.41-.15.61-.39 1.06-.23.44-1 .44-.27 0-.5-.08-.23-.07-.46-.11-1.7-.43-3.36-.43-.77 0-1.72.24-.94.23-.94 1.31 0 1.15.79 2.39.79 1.23 1.87 2.31t1.93 1.78q2.74 2.12 4.46 3.74 1.71 1.62 2.54 3.76.83 2.14.83 5.84v.89q0 4.82-1.68 7.93-1.68 3.1-4.61 4.84-2.93 1.74-6.67 2.43-3.74.69-7.87.69-2.35 0-5.53-.21-3.19-.21-5.35-1.1-.5-.19-.79-.46-.29-.27-.29-.89 0-.19.08-.5.39-2.04.77-4.05.39-2 .73-4.01.16-.97.25-1.95.1-.98.37-1.91.12-.38.41-.92t.79-.54q.31 0 .59.05.29.06.56.14 1.7.38 3.32.58 1.62.19 3.36.19.88 0 1.69-.23.81-.23.81-1.39t-.57-2.16q-.51-.89-1.18-1.72-.68-.83-1.41-1.56-.92-.96-1.97-1.77-1.04-.81-2.08-1.66-3.28-2.55-4.16-5.15-.89-2.61-.97-6.69v-.35q0-5.86 2.43-9.28 2.43-3.41 6.64-4.88 4.2-1.46 9.49-1.46m38.42 68.2h-14.28q-.54 0-1.14-.2-.59-.19-.59-.88 0-.43.85-2.34.84-1.91 2.1-4.53 1.25-2.62 2.49-5.23 1.23-2.6 2.08-4.51.85-1.91.85-2.33 0-.04-.02-.16-.02-.11-.02-.15-.35-1.08-1.49-3.78-1.13-2.7-2.66-6.29-1.52-3.59-3.14-7.41-1.62-3.82-3.03-7.17-1.41-3.36-2.28-5.56-.86-2.2-.86-2.5 0-.66.5-.89.5-.23 1.04-.23h16.24q1 0 1.5 1.04.24.5.74 2.08t1.08 3.42q.58 1.83 1.08 3.2.5 1.37.73 1.48h.08q.31-.15.9-1.54.6-1.39 1.28-3.22.67-1.83 1.29-3.42.62-1.58.92-2.12.54-.92 1.47-.92h12.11q.54 0 1.1.19t.56.93q0 .27-.08.52-.07.25-.15.52-3.01 7.79-6.06 15.58-3.04 7.79-6.01 15.62-1.24 3.28-2.49 6.58-1.26 3.3-2.57 6.58l-1.23 3.35q-.62 1.7-1.39 3.28-.5 1.01-1.5 1.01m28.39-54.16h13.46q1.04 0 1.6 1.08t.96 2.16q.41 1.08.91 1.08.08 0 .35-.27 2.16-2.39 4.3-3.78 2.14-1.39 5.53-1.39 5.17 0 8.64 3.01 3.48 3.01 3.51 8.33.04 4.63.1 9.26.06 4.63.21 9.25.08 2.2.23 4.44.16 2.24.16 4.44 0 1.62-1.54 1.62h-14.66q-1.55 0-1.58-1.58-.16-3.44-.12-6.93.04-3.49.04-6.96 0-1.93.06-3.82.05-1.89-.06-3.78-.04-1-.31-2.35t-1.66-1.35q-1.73 0-2.62 1.69-.89 1.7-1.22 4.11-.32 2.41-.34 4.71-.02 2.29-.06 3.45-.04.66-.02 1.31.02.66.02 1.31 0 2.13.06 4.3.05 2.18-.14 4.31-.11 1.58-1.58 1.58h-14.81q-1.55 0-1.55-1.62 0-2.05.18-4.09.17-2.05.21-4.09.15-4.36.21-8.7.06-4.34.06-8.66 0-2.43-.06-4.84-.06-2.41-.06-4.84 0-.93.2-1.66.19-.73 1.39-.73m70.28 25.69q.58 0 .87.4.29.41.44.87.12.31.6 1.79.48 1.49 1.06 3.3.58 1.82 1 3.2.43 1.39.43 1.51 0 1-1.59 1.7-1.58.69-3.78 1.11-2.2.43-4.16.62-1.97.19-2.74.19-6.1 0-9.95-2.48-3.86-2.49-5.65-6.89-1.8-4.4-1.8-10.11 0-6.24 1.97-11.26 1.97-5.01 6.21-7.95 4.24-2.93 11.03-2.93 2.51 0 5.31.6 2.79.6 4.84 2.18.23.15.46.44.23.29.23.6 0 .23-.5 1.6t-1.22 3.09q-.71 1.71-1.33 3.16-.61 1.45-.81 1.87-.19.39-.46.74-.27.34-.81.34-.77 0-1.5-.4-.74-.41-1.62-.41-1.82 0-2.78 1.28-.97 1.27-1.33 2.98-.37 1.72-.37 3.15 0 2.24.97 4.32.96 2.08 3.66 2.08.89 0 1.68-.35.79-.34 1.64-.34" paint-order="stroke"></path><path fill="#ff851b" d="M116.211 71.485 96.106 50.51 76 71.485h10.614a22.09 22.09 0 0 1-36.75 9.706L38.576 93.046 25.313 79.07c6.306 18.506 24.474 30.28 43.94 28.476 19.469-1.803 35.165-16.711 37.966-36.06z"></path><path fill="#ff851b" d="m38.577 80.33 20.105-20.974H45.83a22.07 22.07 0 0 1 38.999-9.462l11.279-11.826 11.523 12.14c-6.309-18.92-24.977-30.858-44.797-28.652-19.82 2.206-35.406 17.957-37.402 37.8h-6.959z"></path></svg></svg>